<svg viewBox="0 0 1670 889" fill="none" xmlns="http://www.w3.org/2000/svg">
<path d="M146.122 0L2 125.192V394.5L11.4441 386.532L146.122 271.598V888.496H402V0H146.122Z" fill="black"/>
<path d="M747.951 0C502.74 0 304 198.762 304 444C304 670.648 473.868 857.543 693.174 884.539C711.169 886.714 729.362 888 747.951 888C768.319 888 788.292 886.517 807.968 883.847C1024.8 854.576 1192 668.868 1192 444C1192 198.762 993.162 0 747.951 0Z" fill="black"/>
<path fill-rule="evenodd" clip-rule="evenodd" d="M1029.83 842.325C1073.39 863.81 1120.99 878.361 1171.17 884.539C1189.17 886.714 1207.36 888 1225.95 888C1246.32 888 1266.29 886.517 1285.97 883.847C1502.8 854.576 1670 668.868 1670 444C1670 198.762 1471.16 0 1225.95 0C1155.54 0 1088.95 16.39 1029.81 45.564C1154.56 133.959 1236 279.462 1236 444C1236 608.52 1154.57 753.969 1029.83 842.325Z" fill="black"/>
<path d="M403 888V0H145.203L0 125.037V394.325L145.203 271.378V888H403Z" fill="black"/>
</svg>
